<svg xmlns="http://www.w3.org/2000/svg" width="168" height="62" viewBox="0 0 168 62"><g stroke="#604c3b" stroke-width="2.3" stroke-linejoin="round" stroke-linecap="round"><g transform="translate(0 0) rotate(0 28 43)"><ellipse cx="28" cy="53" rx="24" ry="5" fill="#604c3b22" stroke="none"/><ellipse cx="28" cy="49" rx="23" ry="6" fill="#b09260" /><path d="M8 43 Q10 16 28 17 Q45 16 48 43 Z" fill="#e2c895" /><ellipse cx="28" cy="15" rx="4" ry="4" fill="#aa8b59" /><path d="M15 37 Q15 27 21 24" fill="none" stroke="#f9e6b8" stroke-width="3"/></g><g transform="translate(56 0) rotate(-9 28 43)"><ellipse cx="28" cy="53" rx="24" ry="5" fill="#604c3b22" stroke="none"/><ellipse cx="28" cy="49" rx="23" ry="6" fill="#b09260" /><path d="M8 43 Q10 16 28 17 Q45 16 48 43 Z" fill="#e2c895" /><ellipse cx="28" cy="15" rx="4" ry="4" fill="#aa8b59" /><path d="M15 37 Q15 27 21 24" fill="none" stroke="#f9e6b8" stroke-width="3"/></g><g transform="translate(112 0) rotate(9 28 43)"><ellipse cx="28" cy="53" rx="24" ry="5" fill="#604c3b22" stroke="none"/><ellipse cx="28" cy="49" rx="23" ry="6" fill="#b09260" /><path d="M8 43 Q10 16 28 17 Q45 16 48 43 Z" fill="#e2c895" /><ellipse cx="28" cy="15" rx="4" ry="4" fill="#aa8b59" /><path d="M15 37 Q15 27 21 24" fill="none" stroke="#f9e6b8" stroke-width="3"/></g></g></svg>