<svg xmlns="http://www.w3.org/2000/svg" width="1512" height="100" viewBox="0 0 1512 100"><g stroke="#604c3b" stroke-width="2.3" stroke-linejoin="round" stroke-linecap="round"><g transform="translate(0 4)"><ellipse cx="36" cy="89" rx="20" ry="6" fill="#5a514633" stroke="none"/><g ><path d="M29 72 l0 13 h10 l0 -13 M43 72 l0 13 h-10 l0 -13" fill="#555e59" /><ellipse cx="29" cy="85" rx="7" ry="3.4" fill="#654d40" /><ellipse cx="43" cy="85" rx="7" ry="3.4" fill="#654d40" /><rect x="22" y="48" width="28" height="26" rx="10" fill="#abbd7e" /><path d="M27 50 L36 59 L45 50 M36 58 V75" fill="#fff5dd" /><path d="M24 54 Q13 60 18 70" fill="#abbd7e" stroke-width="7"/><path d="M48 54 Q60 58 54 70" fill="#abbd7e" stroke-width="7"/><ellipse cx="18" cy="70" rx="4" ry="4" fill="#d99670" /><ellipse cx="54" cy="70" rx="4" ry="4" fill="#d99670" /><ellipse cx="36" cy="27" rx="21" ry="22" fill="#d99670" /><ellipse cx="15" cy="30" rx="3.5" ry="5" fill="#d99670" /><ellipse cx="56" cy="30" rx="3.5" ry="5" fill="#d99670" /><path d="M16 26 Q12 1 36 3 Q59 0 58 25 L49 14 L44 23 L36 13 L28 23 L25 14 Z" fill="#323e43" /><ellipse cx="29" cy="30" rx="2.3" ry="3.3" fill="#604c3b" /><ellipse cx="44" cy="30" rx="2.3" ry="3.3" fill="#604c3b" /><ellipse cx="24" cy="37" rx="4" ry="2" fill="#df9985" stroke="none"/><ellipse cx="50" cy="37" rx="4" ry="2" fill="#df9985" stroke="none"/><path d="M33 39 q3 3 6 0" fill="none" /><rect x="8" y="62" width="15" height="18" rx="2" fill="#a9b997" /><path d="M12 64 V78" fill="#fff5dd" /></g></g><g transform="translate(72 4)"><ellipse cx="36" cy="89" rx="20" ry="6" fill="#5a514633" stroke="none"/><g ><path d="M29 72 l-3 13 h10 l3 -13 M43 72 l3 13 h-10 l-3 -13" fill="#555e59" /><ellipse cx="26" cy="85" rx="7" ry="3.4" fill="#654d40" /><ellipse cx="46" cy="85" rx="7" ry="3.4" fill="#654d40" /><rect x="22" y="48" width="28" height="26" rx="10" fill="#abbd7e" /><path d="M27 50 L36 59 L45 50 M36 58 V75" fill="#fff5dd" /><path d="M24 54 Q13 60 18 70" fill="#abbd7e" stroke-width="7"/><path d="M48 54 Q60 58 54 70" fill="#abbd7e" stroke-width="7"/><ellipse cx="18" cy="70" rx="4" ry="4" fill="#d99670" /><ellipse cx="54" cy="70" rx="4" ry="4" fill="#d99670" /><ellipse cx="36" cy="27" rx="21" ry="22" fill="#d99670" /><ellipse cx="15" cy="30" rx="3.5" ry="5" fill="#d99670" /><ellipse cx="56" cy="30" rx="3.5" ry="5" fill="#d99670" /><path d="M16 26 Q12 1 36 3 Q59 0 58 25 L49 14 L44 23 L36 13 L28 23 L25 14 Z" fill="#323e43" /><ellipse cx="29" cy="30" rx="2.3" ry="3.3" fill="#604c3b" /><ellipse cx="44" cy="30" rx="2.3" ry="3.3" fill="#604c3b" /><ellipse cx="24" cy="37" rx="4" ry="2" fill="#df9985" stroke="none"/><ellipse cx="50" cy="37" rx="4" ry="2" fill="#df9985" stroke="none"/><path d="M33 39 q3 3 6 0" fill="none" /><rect x="8" y="62" width="15" height="18" rx="2" fill="#a9b997" /><path d="M12 64 V78" fill="#fff5dd" /></g></g><g transform="translate(144 4)"><ellipse cx="36" cy="89" rx="20" ry="6" fill="#5a514633" stroke="none"/><g ><path d="M29 72 l0 13 h10 l0 -13 M43 72 l0 13 h-10 l0 -13" fill="#555e59" /><ellipse cx="29" cy="85" rx="7" ry="3.4" fill="#654d40" /><ellipse cx="43" cy="85" rx="7" ry="3.4" fill="#654d40" /><rect x="22" y="48" width="28" height="26" rx="10" fill="#abbd7e" /><path d="M27 50 L36 59 L45 50 M36 58 V75" fill="#fff5dd" /><path d="M24 54 Q13 60 18 70" fill="#abbd7e" stroke-width="7"/><path d="M48 54 Q60 58 54 70" fill="#abbd7e" stroke-width="7"/><ellipse cx="18" cy="70" rx="4" ry="4" fill="#d99670" /><ellipse cx="54" cy="70" rx="4" ry="4" fill="#d99670" /><ellipse cx="36" cy="27" rx="21" ry="22" fill="#d99670" /><ellipse cx="15" cy="30" rx="3.5" ry="5" fill="#d99670" /><ellipse cx="56" cy="30" rx="3.5" ry="5" fill="#d99670" /><path d="M16 26 Q12 1 36 3 Q59 0 58 25 L49 14 L44 23 L36 13 L28 23 L25 14 Z" fill="#323e43" /><ellipse cx="29" cy="30" rx="2.3" ry="3.3" fill="#604c3b" /><ellipse cx="44" cy="30" rx="2.3" ry="3.3" fill="#604c3b" /><ellipse cx="24" cy="37" rx="4" ry="2" fill="#df9985" stroke="none"/><ellipse cx="50" cy="37" rx="4" ry="2" fill="#df9985" stroke="none"/><path d="M33 39 q3 3 6 0" fill="none" /><rect x="8" y="62" width="15" height="18" rx="2" fill="#a9b997" /><path d="M12 64 V78" fill="#fff5dd" /></g></g><g transform="translate(216 4)"><ellipse cx="36" cy="89" rx="20" ry="6" fill="#5a514633" stroke="none"/><g ><path d="M29 72 l3 13 h10 l-3 -13 M43 72 l-3 13 h-10 l3 -13" fill="#555e59" /><ellipse cx="32" cy="85" rx="7" ry="3.4" fill="#654d40" /><ellipse cx="40" cy="85" rx="7" ry="3.4" fill="#654d40" /><rect x="22" y="48" width="28" height="26" rx="10" fill="#abbd7e" /><path d="M27 50 L36 59 L45 50 M36 58 V75" fill="#fff5dd" /><path d="M24 54 Q13 60 18 70" fill="#abbd7e" stroke-width="7"/><path d="M48 54 Q60 58 54 70" fill="#abbd7e" stroke-width="7"/><ellipse cx="18" cy="70" rx="4" ry="4" fill="#d99670" /><ellipse cx="54" cy="70" rx="4" ry="4" fill="#d99670" /><ellipse cx="36" cy="27" rx="21" ry="22" fill="#d99670" /><ellipse cx="15" cy="30" rx="3.5" ry="5" fill="#d99670" /><ellipse cx="56" cy="30" rx="3.5" ry="5" fill="#d99670" /><path d="M16 26 Q12 1 36 3 Q59 0 58 25 L49 14 L44 23 L36 13 L28 23 L25 14 Z" fill="#323e43" /><ellipse cx="29" cy="30" rx="2.3" ry="3.3" fill="#604c3b" /><ellipse cx="44" cy="30" rx="2.3" ry="3.3" fill="#604c3b" /><ellipse cx="24" cy="37" rx="4" ry="2" fill="#df9985" stroke="none"/><ellipse cx="50" cy="37" rx="4" ry="2" fill="#df9985" stroke="none"/><path d="M33 39 q3 3 6 0" fill="none" /><rect x="8" y="62" width="15" height="18" rx="2" fill="#a9b997" /><path d="M12 64 V78" fill="#fff5dd" /></g></g><g transform="translate(288 4)"><ellipse cx="36" cy="89" rx="20" ry="6" fill="#5a514633" stroke="none"/><g ><path d="M29 72 l-3 13 h10 l3 -13 M43 72 l3 13 h-10 l-3 -13" fill="#555e59" /><ellipse cx="26" cy="85" rx="7" ry="3.4" fill="#654d40" /><ellipse cx="46" cy="85" rx="7" ry="3.4" fill="#654d40" /><rect x="22" y="48" width="28" height="26" rx="10" fill="#abbd7e" /><path d="M27 50 L36 59 L45 50 M36 58 V75" fill="#fff5dd" /><path d="M24 54 Q13 60 18 70" fill="#abbd7e" stroke-width="7"/><path d="M48 54 Q60 58 54 70" fill="#abbd7e" stroke-width="7"/><ellipse cx="18" cy="70" rx="4" ry="4" fill="#d99670" /><ellipse cx="54" cy="70" rx="4" ry="4" fill="#d99670" /><ellipse cx="36" cy="27" rx="21" ry="22" fill="#d99670" /><ellipse cx="15" cy="30" rx="3.5" ry="5" fill="#d99670" /><ellipse cx="56" cy="30" rx="3.5" ry="5" fill="#d99670" /><path d="M16 26 Q12 1 36 3 Q59 0 58 25 L49 14 L44 23 L36 13 L28 23 L25 14 Z" fill="#323e43" /><ellipse cx="36" cy="27" rx="20" ry="21" fill="#323e43" /><path d="M21 24 Q35 13 51 24" fill="none" stroke="#ffffff24"/><rect x="8" y="62" width="15" height="18" rx="2" fill="#a9b997" /><path d="M12 64 V78" fill="#fff5dd" /></g></g><g transform="translate(360 4)"><ellipse cx="36" cy="89" rx="20" ry="6" fill="#5a514633" stroke="none"/><g ><path d="M29 72 l0 13 h10 l0 -13 M43 72 l0 13 h-10 l0 -13" fill="#555e59" /><ellipse cx="29" cy="85" rx="7" ry="3.4" fill="#654d40" /><ellipse cx="43" cy="85" rx="7" ry="3.4" fill="#654d40" /><rect x="22" y="48" width="28" height="26" rx="10" fill="#abbd7e" /><path d="M27 50 L36 59 L45 50 M36 58 V75" fill="#fff5dd" /><path d="M24 54 Q13 60 18 70" fill="#abbd7e" stroke-width="7"/><path d="M48 54 Q60 58 54 70" fill="#abbd7e" stroke-width="7"/><ellipse cx="18" cy="70" rx="4" ry="4" fill="#d99670" /><ellipse cx="54" cy="70" rx="4" ry="4" fill="#d99670" /><ellipse cx="36" cy="27" rx="21" ry="22" fill="#d99670" /><ellipse cx="15" cy="30" rx="3.5" ry="5" fill="#d99670" /><ellipse cx="56" cy="30" rx="3.5" ry="5" fill="#d99670" /><path d="M16 26 Q12 1 36 3 Q59 0 58 25 L49 14 L44 23 L36 13 L28 23 L25 14 Z" fill="#323e43" /><ellipse cx="36" cy="27" rx="20" ry="21" fill="#323e43" /><path d="M21 24 Q35 13 51 24" fill="none" stroke="#ffffff24"/><rect x="8" y="62" width="15" height="18" rx="2" fill="#a9b997" /><path d="M12 64 V78" fill="#fff5dd" /></g></g><g transform="translate(432 4)"><ellipse cx="36" cy="89" rx="20" ry="6" fill="#5a514633" stroke="none"/><g ><path d="M29 72 l3 13 h10 l-3 -13 M43 72 l-3 13 h-10 l3 -13" fill="#555e59" /><ellipse cx="32" cy="85" rx="7" ry="3.4" fill="#654d40" /><ellipse cx="40" cy="85" rx="7" ry="3.4" fill="#654d40" /><rect x="22" y="48" width="28" height="26" rx="10" fill="#abbd7e" /><path d="M27 50 L36 59 L45 50 M36 58 V75" fill="#fff5dd" /><path d="M24 54 Q13 60 18 70" fill="#abbd7e" stroke-width="7"/><path d="M48 54 Q60 58 54 70" fill="#abbd7e" stroke-width="7"/><ellipse cx="18" cy="70" rx="4" ry="4" fill="#d99670" /><ellipse cx="54" cy="70" rx="4" ry="4" fill="#d99670" /><ellipse cx="36" cy="27" rx="21" ry="22" fill="#d99670" /><ellipse cx="15" cy="30" rx="3.5" ry="5" fill="#d99670" /><ellipse cx="56" cy="30" rx="3.5" ry="5" fill="#d99670" /><path d="M16 26 Q12 1 36 3 Q59 0 58 25 L49 14 L44 23 L36 13 L28 23 L25 14 Z" fill="#323e43" /><ellipse cx="36" cy="27" rx="20" ry="21" fill="#323e43" /><path d="M21 24 Q35 13 51 24" fill="none" stroke="#ffffff24"/><rect x="8" y="62" width="15" height="18" rx="2" fill="#a9b997" /><path d="M12 64 V78" fill="#fff5dd" /></g></g><g transform="translate(504 4)"><ellipse cx="36" cy="89" rx="20" ry="6" fill="#5a514633" stroke="none"/><g ><path d="M29 72 l-3 13 h10 l3 -13 M43 72 l3 13 h-10 l-3 -13" fill="#555e59" /><ellipse cx="26" cy="85" rx="7" ry="3.4" fill="#654d40" /><ellipse cx="46" cy="85" rx="7" ry="3.4" fill="#654d40" /><rect x="22" y="48" width="28" height="26" rx="10" fill="#abbd7e" /><path d="M27 50 L36 59 L45 50 M36 58 V75" fill="#fff5dd" /><path d="M24 54 Q13 60 18 70" fill="#abbd7e" stroke-width="7"/><path d="M48 54 Q60 58 54 70" fill="#abbd7e" stroke-width="7"/><ellipse cx="18" cy="70" rx="4" ry="4" fill="#d99670" /><ellipse cx="54" cy="70" rx="4" ry="4" fill="#d99670" /><ellipse cx="40" cy="27" rx="21" ry="22" fill="#d99670" /><ellipse cx="19" cy="30" rx="3.5" ry="5" fill="#d99670" /><ellipse cx="60" cy="30" rx="3.5" ry="5" fill="#d99670" /><path d="M16 26 Q12 1 36 3 Q59 0 58 25 L49 14 L44 23 L36 13 L28 23 L25 14 Z" fill="#323e43" /><ellipse cx="49" cy="30" rx="2.5" ry="3.5" fill="#604c3b" /><ellipse cx="28" cy="37" rx="4" ry="2" fill="#df9985" stroke="none"/><ellipse cx="54" cy="37" rx="4" ry="2" fill="#df9985" stroke="none"/><path d="M37 39 q3 3 6 0" fill="none" /><rect x="8" y="62" width="15" height="18" rx="2" fill="#a9b997" /><path d="M12 64 V78" fill="#fff5dd" /></g></g><g transform="translate(576 4)"><ellipse cx="36" cy="89" rx="20" ry="6" fill="#5a514633" stroke="none"/><g ><path d="M29 72 l0 13 h10 l0 -13 M43 72 l0 13 h-10 l0 -13" fill="#555e59" /><ellipse cx="29" cy="85" rx="7" ry="3.4" fill="#654d40" /><ellipse cx="43" cy="85" rx="7" ry="3.4" fill="#654d40" /><rect x="22" y="48" width="28" height="26" rx="10" fill="#abbd7e" /><path d="M27 50 L36 59 L45 50 M36 58 V75" fill="#fff5dd" /><path d="M24 54 Q13 60 18 70" fill="#abbd7e" stroke-width="7"/><path d="M48 54 Q60 58 54 70" fill="#abbd7e" stroke-width="7"/><ellipse cx="18" cy="70" rx="4" ry="4" fill="#d99670" /><ellipse cx="54" cy="70" rx="4" ry="4" fill="#d99670" /><ellipse cx="40" cy="27" rx="21" ry="22" fill="#d99670" /><ellipse cx="19" cy="30" rx="3.5" ry="5" fill="#d99670" /><ellipse cx="60" cy="30" rx="3.5" ry="5" fill="#d99670" /><path d="M16 26 Q12 1 36 3 Q59 0 58 25 L49 14 L44 23 L36 13 L28 23 L25 14 Z" fill="#323e43" /><ellipse cx="49" cy="30" rx="2.5" ry="3.5" fill="#604c3b" /><ellipse cx="28" cy="37" rx="4" ry="2" fill="#df9985" stroke="none"/><ellipse cx="54" cy="37" rx="4" ry="2" fill="#df9985" stroke="none"/><path d="M37 39 q3 3 6 0" fill="none" /><rect x="8" y="62" width="15" height="18" rx="2" fill="#a9b997" /><path d="M12 64 V78" fill="#fff5dd" /></g></g><g transform="translate(648 4)"><ellipse cx="36" cy="89" rx="20" ry="6" fill="#5a514633" stroke="none"/><g ><path d="M29 72 l3 13 h10 l-3 -13 M43 72 l-3 13 h-10 l3 -13" fill="#555e59" /><ellipse cx="32" cy="85" rx="7" ry="3.4" fill="#654d40" /><ellipse cx="40" cy="85" rx="7" ry="3.4" fill="#654d40" /><rect x="22" y="48" width="28" height="26" rx="10" fill="#abbd7e" /><path d="M27 50 L36 59 L45 50 M36 58 V75" fill="#fff5dd" /><path d="M24 54 Q13 60 18 70" fill="#abbd7e" stroke-width="7"/><path d="M48 54 Q60 58 54 70" fill="#abbd7e" stroke-width="7"/><ellipse cx="18" cy="70" rx="4" ry="4" fill="#d99670" /><ellipse cx="54" cy="70" rx="4" ry="4" fill="#d99670" /><ellipse cx="40" cy="27" rx="21" ry="22" fill="#d99670" /><ellipse cx="19" cy="30" rx="3.5" ry="5" fill="#d99670" /><ellipse cx="60" cy="30" rx="3.5" ry="5" fill="#d99670" /><path d="M16 26 Q12 1 36 3 Q59 0 58 25 L49 14 L44 23 L36 13 L28 23 L25 14 Z" fill="#323e43" /><ellipse cx="49" cy="30" rx="2.5" ry="3.5" fill="#604c3b" /><ellipse cx="28" cy="37" rx="4" ry="2" fill="#df9985" stroke="none"/><ellipse cx="54" cy="37" rx="4" ry="2" fill="#df9985" stroke="none"/><path d="M37 39 q3 3 6 0" fill="none" /><rect x="8" y="62" width="15" height="18" rx="2" fill="#a9b997" /><path d="M12 64 V78" fill="#fff5dd" /></g></g><g transform="translate(720 4)"><ellipse cx="36" cy="89" rx="20" ry="6" fill="#5a514633" stroke="none"/><g transform="translate(72 0) scale(-1 1)"><path d="M29 72 l-3 13 h10 l3 -13 M43 72 l3 13 h-10 l-3 -13" fill="#555e59" /><ellipse cx="26" cy="85" rx="7" ry="3.4" fill="#654d40" /><ellipse cx="46" cy="85" rx="7" ry="3.4" fill="#654d40" /><rect x="22" y="48" width="28" height="26" rx="10" fill="#abbd7e" /><path d="M27 50 L36 59 L45 50 M36 58 V75" fill="#fff5dd" /><path d="M24 54 Q13 60 18 70" fill="#abbd7e" stroke-width="7"/><path d="M48 54 Q60 58 54 70" fill="#abbd7e" stroke-width="7"/><ellipse cx="18" cy="70" rx="4" ry="4" fill="#d99670" /><ellipse cx="54" cy="70" rx="4" ry="4" fill="#d99670" /><ellipse cx="40" cy="27" rx="21" ry="22" fill="#d99670" /><ellipse cx="19" cy="30" rx="3.5" ry="5" fill="#d99670" /><ellipse cx="60" cy="30" rx="3.5" ry="5" fill="#d99670" /><path d="M16 26 Q12 1 36 3 Q59 0 58 25 L49 14 L44 23 L36 13 L28 23 L25 14 Z" fill="#323e43" /><ellipse cx="49" cy="30" rx="2.5" ry="3.5" fill="#604c3b" /><ellipse cx="28" cy="37" rx="4" ry="2" fill="#df9985" stroke="none"/><ellipse cx="54" cy="37" rx="4" ry="2" fill="#df9985" stroke="none"/><path d="M37 39 q3 3 6 0" fill="none" /><rect x="8" y="62" width="15" height="18" rx="2" fill="#a9b997" /><path d="M12 64 V78" fill="#fff5dd" /></g></g><g transform="translate(792 4)"><ellipse cx="36" cy="89" rx="20" ry="6" fill="#5a514633" stroke="none"/><g transform="translate(72 0) scale(-1 1)"><path d="M29 72 l0 13 h10 l0 -13 M43 72 l0 13 h-10 l0 -13" fill="#555e59" /><ellipse cx="29" cy="85" rx="7" ry="3.4" fill="#654d40" /><ellipse cx="43" cy="85" rx="7" ry="3.4" fill="#654d40" /><rect x="22" y="48" width="28" height="26" rx="10" fill="#abbd7e" /><path d="M27 50 L36 59 L45 50 M36 58 V75" fill="#fff5dd" /><path d="M24 54 Q13 60 18 70" fill="#abbd7e" stroke-width="7"/><path d="M48 54 Q60 58 54 70" fill="#abbd7e" stroke-width="7"/><ellipse cx="18" cy="70" rx="4" ry="4" fill="#d99670" /><ellipse cx="54" cy="70" rx="4" ry="4" fill="#d99670" /><ellipse cx="40" cy="27" rx="21" ry="22" fill="#d99670" /><ellipse cx="19" cy="30" rx="3.5" ry="5" fill="#d99670" /><ellipse cx="60" cy="30" rx="3.5" ry="5" fill="#d99670" /><path d="M16 26 Q12 1 36 3 Q59 0 58 25 L49 14 L44 23 L36 13 L28 23 L25 14 Z" fill="#323e43" /><ellipse cx="49" cy="30" rx="2.5" ry="3.5" fill="#604c3b" /><ellipse cx="28" cy="37" rx="4" ry="2" fill="#df9985" stroke="none"/><ellipse cx="54" cy="37" rx="4" ry="2" fill="#df9985" stroke="none"/><path d="M37 39 q3 3 6 0" fill="none" /><rect x="8" y="62" width="15" height="18" rx="2" fill="#a9b997" /><path d="M12 64 V78" fill="#fff5dd" /></g></g><g transform="translate(864 4)"><ellipse cx="36" cy="89" rx="20" ry="6" fill="#5a514633" stroke="none"/><g transform="translate(72 0) scale(-1 1)"><path d="M29 72 l3 13 h10 l-3 -13 M43 72 l-3 13 h-10 l3 -13" fill="#555e59" /><ellipse cx="32" cy="85" rx="7" ry="3.4" fill="#654d40" /><ellipse cx="40" cy="85" rx="7" ry="3.4" fill="#654d40" /><rect x="22" y="48" width="28" height="26" rx="10" fill="#abbd7e" /><path d="M27 50 L36 59 L45 50 M36 58 V75" fill="#fff5dd" /><path d="M24 54 Q13 60 18 70" fill="#abbd7e" stroke-width="7"/><path d="M48 54 Q60 58 54 70" fill="#abbd7e" stroke-width="7"/><ellipse cx="18" cy="70" rx="4" ry="4" fill="#d99670" /><ellipse cx="54" cy="70" rx="4" ry="4" fill="#d99670" /><ellipse cx="40" cy="27" rx="21" ry="22" fill="#d99670" /><ellipse cx="19" cy="30" rx="3.5" ry="5" fill="#d99670" /><ellipse cx="60" cy="30" rx="3.5" ry="5" fill="#d99670" /><path d="M16 26 Q12 1 36 3 Q59 0 58 25 L49 14 L44 23 L36 13 L28 23 L25 14 Z" fill="#323e43" /><ellipse cx="49" cy="30" rx="2.5" ry="3.5" fill="#604c3b" /><ellipse cx="28" cy="37" rx="4" ry="2" fill="#df9985" stroke="none"/><ellipse cx="54" cy="37" rx="4" ry="2" fill="#df9985" stroke="none"/><path d="M37 39 q3 3 6 0" fill="none" /><rect x="8" y="62" width="15" height="18" rx="2" fill="#a9b997" /><path d="M12 64 V78" fill="#fff5dd" /></g></g><g transform="translate(936 4)"><ellipse cx="36" cy="89" rx="20" ry="5" fill="#5a514633" stroke="none"/><g ><path d="M26 72 l-7 8 h10 l0 -13 M44 72 l9 8 h-10 l0 -13" fill="#555e59" /><ellipse cx="21" cy="85" rx="7" ry="3.4" fill="#654d40" /><ellipse cx="50" cy="85" rx="7" ry="3.4" fill="#654d40" /><rect x="22" y="51" width="28" height="26" rx="10" fill="#abbd7e" /><path d="M27 53 L36 59 L45 53 M36 58 V75" fill="#fff5dd" /><path d="M24 57 Q13 63 18 70" fill="#abbd7e" stroke-width="7"/><path d="M48 57 Q60 61 54 70" fill="#abbd7e" stroke-width="7"/><ellipse cx="18" cy="70" rx="4" ry="4" fill="#d99670" /><ellipse cx="54" cy="70" rx="4" ry="4" fill="#d99670" /><ellipse cx="36" cy="31" rx="21" ry="22" fill="#d99670" /><ellipse cx="15" cy="34" rx="3.5" ry="5" fill="#d99670" /><ellipse cx="56" cy="34" rx="3.5" ry="5" fill="#d99670" /><path d="M16 26 Q12 1 36 3 Q59 0 58 25 L49 14 L44 23 L36 13 L28 23 L25 14 Z" fill="#323e43" /><ellipse cx="29" cy="34" rx="2.3" ry="3.3" fill="#604c3b" /><ellipse cx="44" cy="34" rx="2.3" ry="3.3" fill="#604c3b" /><ellipse cx="24" cy="41" rx="4" ry="2" fill="#df9985" stroke="none"/><ellipse cx="50" cy="41" rx="4" ry="2" fill="#df9985" stroke="none"/><path d="M33 43 q3 3 6 0" fill="none" /><rect x="8" y="62" width="15" height="18" rx="2" fill="#a9b997" /><path d="M12 64 V78" fill="#fff5dd" /></g></g><g transform="translate(1008 4)"><ellipse cx="36" cy="89" rx="20" ry="6" fill="#5a514633" stroke="none"/><g ><path d="M29 72 l0 13 h10 l0 -13 M43 72 l0 13 h-10 l0 -13" fill="#555e59" /><ellipse cx="29" cy="85" rx="7" ry="3.4" fill="#654d40" /><ellipse cx="43" cy="85" rx="7" ry="3.4" fill="#654d40" /><rect x="22" y="48" width="28" height="26" rx="10" fill="#abbd7e" /><path d="M27 50 L36 59 L45 50 M36 58 V75" fill="#fff5dd" /><path d="M24 54 Q13 60 25 59" fill="#abbd7e" stroke-width="7"/><path d="M48 54 Q60 58 48 56" fill="#abbd7e" stroke-width="7"/><ellipse cx="25" cy="59" rx="4" ry="4" fill="#d99670" /><ellipse cx="48" cy="56" rx="4" ry="4" fill="#d99670" /><ellipse cx="36" cy="27" rx="21" ry="22" fill="#d99670" /><ellipse cx="15" cy="30" rx="3.5" ry="5" fill="#d99670" /><ellipse cx="56" cy="30" rx="3.5" ry="5" fill="#d99670" /><path d="M16 26 Q12 1 36 3 Q59 0 58 25 L49 14 L44 23 L36 13 L28 23 L25 14 Z" fill="#323e43" /><ellipse cx="29" cy="30" rx="2.3" ry="3.3" fill="#604c3b" /><ellipse cx="44" cy="30" rx="2.3" ry="3.3" fill="#604c3b" /><ellipse cx="24" cy="37" rx="4" ry="2" fill="#df9985" stroke="none"/><ellipse cx="50" cy="37" rx="4" ry="2" fill="#df9985" stroke="none"/><path d="M33 39 q3 3 6 0" fill="none" /><ellipse cx="36" cy="63" rx="18" ry="4" fill="#b7875a" /><rect x="30" y="50" width="12" height="13" rx="2" fill="#eff3db" /><rect x="31" y="52" width="10" height="8" rx="1" fill="#789b64" /><path d="M35 48 V45 L41 41" fill="none" /></g></g><g transform="translate(1080 4)"><ellipse cx="36" cy="89" rx="20" ry="6" fill="#5a514633" stroke="none"/><g ><path d="M29 72 l-3 13 h10 l3 -13 M43 72 l3 13 h-10 l-3 -13" fill="#555e59" /><ellipse cx="26" cy="85" rx="7" ry="3.4" fill="#654d40" /><ellipse cx="46" cy="85" rx="7" ry="3.4" fill="#654d40" /><rect x="22" y="48" width="28" height="26" rx="10" fill="#abbd7e" /><path d="M27 50 L36 59 L45 50 M36 58 V75" fill="#fff5dd" /><path d="M24 54 Q13 60 21 59" fill="#abbd7e" stroke-width="7"/><path d="M48 54 Q60 58 54 56" fill="#abbd7e" stroke-width="7"/><ellipse cx="21" cy="59" rx="4" ry="4" fill="#d99670" /><ellipse cx="54" cy="56" rx="4" ry="4" fill="#d99670" /><ellipse cx="36" cy="27" rx="21" ry="22" fill="#d99670" /><ellipse cx="15" cy="30" rx="3.5" ry="5" fill="#d99670" /><ellipse cx="56" cy="30" rx="3.5" ry="5" fill="#d99670" /><path d="M16 26 Q12 1 36 3 Q59 0 58 25 L49 14 L44 23 L36 13 L28 23 L25 14 Z" fill="#323e43" /><ellipse cx="29" cy="30" rx="2.3" ry="3.3" fill="#604c3b" /><ellipse cx="44" cy="30" rx="2.3" ry="3.3" fill="#604c3b" /><ellipse cx="24" cy="37" rx="4" ry="2" fill="#df9985" stroke="none"/><ellipse cx="50" cy="37" rx="4" ry="2" fill="#df9985" stroke="none"/><path d="M33 39 q3 3 6 0" fill="none" /><rect x="8" y="62" width="15" height="18" rx="2" fill="#a9b997" /><path d="M12 64 V78" fill="#fff5dd" /><rect x="25" y="58" width="27" height="8" rx="2" fill="#d9bf90" /><path d="M35 52 L44 39" fill="none" stroke="#b38756" stroke-width="4"/></g></g><g transform="translate(1152 4)"><ellipse cx="36" cy="89" rx="20" ry="6" fill="#5a514633" stroke="none"/><g ><path d="M29 72 l0 13 h10 l0 -13 M43 72 l0 13 h-10 l0 -13" fill="#555e59" /><ellipse cx="29" cy="85" rx="7" ry="3.4" fill="#654d40" /><ellipse cx="43" cy="85" rx="7" ry="3.4" fill="#654d40" /><rect x="22" y="48" width="28" height="26" rx="10" fill="#abbd7e" /><path d="M27 50 L36 59 L45 50 M36 58 V75" fill="#fff5dd" /><path d="M24 54 Q13 60 25 59" fill="#abbd7e" stroke-width="7"/><path d="M48 54 Q60 58 48 56" fill="#abbd7e" stroke-width="7"/><ellipse cx="25" cy="59" rx="4" ry="4" fill="#d99670" /><ellipse cx="48" cy="56" rx="4" ry="4" fill="#d99670" /><ellipse cx="36" cy="27" rx="21" ry="22" fill="#d99670" /><ellipse cx="15" cy="30" rx="3.5" ry="5" fill="#d99670" /><ellipse cx="56" cy="30" rx="3.5" ry="5" fill="#d99670" /><path d="M16 26 Q12 1 36 3 Q59 0 58 25 L49 14 L44 23 L36 13 L28 23 L25 14 Z" fill="#323e43" /><ellipse cx="29" cy="30" rx="2.3" ry="3.3" fill="#604c3b" /><ellipse cx="44" cy="30" rx="2.3" ry="3.3" fill="#604c3b" /><ellipse cx="24" cy="37" rx="4" ry="2" fill="#df9985" stroke="none"/><ellipse cx="50" cy="37" rx="4" ry="2" fill="#df9985" stroke="none"/><path d="M33 39 q3 3 6 0" fill="none" /><rect x="8" y="62" width="15" height="18" rx="2" fill="#a9b997" /><path d="M12 64 V78" fill="#fff5dd" /><rect x="25" y="58" width="27" height="8" rx="2" fill="#d9bf90" /><path d="M35 52 L29 39" fill="none" stroke="#b38756" stroke-width="4"/></g></g><g transform="translate(1224 4)"><ellipse cx="36" cy="89" rx="20" ry="6" fill="#5a514633" stroke="none"/><g ><path d="M29 72 l0 13 h10 l0 -13 M43 72 l0 13 h-10 l0 -13" fill="#555e59" /><ellipse cx="29" cy="85" rx="7" ry="3.4" fill="#654d40" /><ellipse cx="43" cy="85" rx="7" ry="3.4" fill="#654d40" /><rect x="22" y="48" width="28" height="26" rx="10" fill="#abbd7e" /><path d="M27 50 L36 59 L45 50 M36 58 V75" fill="#fff5dd" /><path d="M24 54 Q13 60 18 70" fill="#abbd7e" stroke-width="7"/><path d="M48 54 Q60 58 54 70" fill="#abbd7e" stroke-width="7"/><ellipse cx="18" cy="70" rx="4" ry="4" fill="#d99670" /><ellipse cx="54" cy="70" rx="4" ry="4" fill="#d99670" /><ellipse cx="36" cy="27" rx="21" ry="22" fill="#d99670" /><ellipse cx="15" cy="30" rx="3.5" ry="5" fill="#d99670" /><ellipse cx="56" cy="30" rx="3.5" ry="5" fill="#d99670" /><path d="M16 26 Q12 1 36 3 Q59 0 58 25 L49 14 L44 23 L36 13 L28 23 L25 14 Z" fill="#323e43" /><path d="M26 30 q4 -5 7 0 M40 30 q4 -5 7 0" fill="none" /><ellipse cx="24" cy="37" rx="4" ry="2" fill="#df9985" stroke="none"/><ellipse cx="50" cy="37" rx="4" ry="2" fill="#df9985" stroke="none"/><path d="M33 39 q3 3 6 0" fill="none" /><rect x="8" y="62" width="15" height="18" rx="2" fill="#a9b997" /><path d="M12 64 V78" fill="#fff5dd" /></g></g><g transform="translate(1296 4)"><ellipse cx="36" cy="89" rx="20" ry="6" fill="#5a514633" stroke="none"/><g ><path d="M29 72 l0 13 h10 l0 -13 M43 72 l0 13 h-10 l0 -13" fill="#555e59" /><ellipse cx="29" cy="85" rx="7" ry="3.4" fill="#654d40" /><ellipse cx="43" cy="85" rx="7" ry="3.4" fill="#654d40" /><rect x="22" y="48" width="28" height="26" rx="10" fill="#abbd7e" /><path d="M27 50 L36 59 L45 50 M36 58 V75" fill="#fff5dd" /><path d="M24 54 Q13 60 18 70" fill="#abbd7e" stroke-width="7"/><path d="M48 54 Q60 58 54 70" fill="#abbd7e" stroke-width="7"/><ellipse cx="18" cy="70" rx="4" ry="4" fill="#d99670" /><ellipse cx="54" cy="70" rx="4" ry="4" fill="#d99670" /><ellipse cx="36" cy="27" rx="21" ry="22" fill="#d99670" /><ellipse cx="15" cy="30" rx="3.5" ry="5" fill="#d99670" /><ellipse cx="56" cy="30" rx="3.5" ry="5" fill="#d99670" /><path d="M16 26 Q12 1 36 3 Q59 0 58 25 L49 14 L44 23 L36 13 L28 23 L25 14 Z" fill="#323e43" /><ellipse cx="29" cy="30" rx="2.3" ry="3.3" fill="#604c3b" /><ellipse cx="44" cy="30" rx="2.3" ry="3.3" fill="#604c3b" /><ellipse cx="24" cy="37" rx="4" ry="2" fill="#df9985" stroke="none"/><ellipse cx="50" cy="37" rx="4" ry="2" fill="#df9985" stroke="none"/><path d="M32 41 q4 -4 8 0" fill="none" /><rect x="8" y="62" width="15" height="18" rx="2" fill="#a9b997" /><path d="M12 64 V78" fill="#fff5dd" /></g></g><g transform="translate(1368 4)"><ellipse cx="36" cy="89" rx="20" ry="6" fill="#5a514633" stroke="none"/><g ><path d="M29 72 l0 13 h10 l0 -13 M43 72 l0 13 h-10 l0 -13" fill="#555e59" /><ellipse cx="29" cy="85" rx="7" ry="3.4" fill="#654d40" /><ellipse cx="43" cy="85" rx="7" ry="3.4" fill="#654d40" /><rect x="22" y="48" width="28" height="26" rx="10" fill="#abbd7e" /><path d="M27 50 L36 59 L45 50 M36 58 V75" fill="#fff5dd" /><path d="M24 54 Q13 60 18 70" fill="#abbd7e" stroke-width="7"/><path d="M48 54 Q60 58 54 70" fill="#abbd7e" stroke-width="7"/><ellipse cx="18" cy="70" rx="4" ry="4" fill="#d99670" /><ellipse cx="54" cy="70" rx="4" ry="4" fill="#d99670" /><ellipse cx="36" cy="27" rx="21" ry="22" fill="#d99670" /><ellipse cx="15" cy="30" rx="3.5" ry="5" fill="#d99670" /><ellipse cx="56" cy="30" rx="3.5" ry="5" fill="#d99670" /><path d="M16 26 Q12 1 36 3 Q59 0 58 25 L49 14 L44 23 L36 13 L28 23 L25 14 Z" fill="#323e43" /><path d="M26 31 h6 M40 31 h6" fill="none" /><ellipse cx="24" cy="37" rx="4" ry="2" fill="#df9985" stroke="none"/><ellipse cx="50" cy="37" rx="4" ry="2" fill="#df9985" stroke="none"/><path d="M33 39 q3 3 6 0" fill="none" /><rect x="8" y="62" width="15" height="18" rx="2" fill="#a9b997" /><path d="M12 64 V78" fill="#fff5dd" /></g></g><g transform="translate(1440 4)"><ellipse cx="36" cy="89" rx="20" ry="6" fill="#5a514633" stroke="none"/><g ><path d="M29 72 l0 13 h10 l0 -13 M43 72 l0 13 h-10 l0 -13" fill="#555e59" /><ellipse cx="29" cy="85" rx="7" ry="3.4" fill="#654d40" /><ellipse cx="43" cy="85" rx="7" ry="3.4" fill="#654d40" /><rect x="22" y="48" width="28" height="26" rx="10" fill="#abbd7e" /><path d="M27 50 L36 59 L45 50 M36 58 V75" fill="#fff5dd" /><path d="M24 54 Q13 60 18 70" fill="#abbd7e" stroke-width="7"/><path d="M48 54 Q60 58 54 70" fill="#abbd7e" stroke-width="7"/><ellipse cx="18" cy="70" rx="4" ry="4" fill="#d99670" /><ellipse cx="54" cy="70" rx="4" ry="4" fill="#d99670" /><ellipse cx="36" cy="27" rx="21" ry="22" fill="#d99670" /><ellipse cx="15" cy="30" rx="3.5" ry="5" fill="#d99670" /><ellipse cx="56" cy="30" rx="3.5" ry="5" fill="#d99670" /><path d="M16 26 Q12 1 36 3 Q59 0 58 25 L49 14 L44 23 L36 13 L28 23 L25 14 Z" fill="#323e43" /><ellipse cx="29" cy="30" rx="2.3" ry="4" fill="#604c3b" /><ellipse cx="44" cy="30" rx="2.3" ry="4" fill="#604c3b" /><ellipse cx="24" cy="37" rx="4" ry="2" fill="#df9985" stroke="none"/><ellipse cx="50" cy="37" rx="4" ry="2" fill="#df9985" stroke="none"/><ellipse cx="36" cy="40" rx="3" ry="4" fill="#9f5a4c" /><rect x="8" y="62" width="15" height="18" rx="2" fill="#a9b997" /><path d="M12 64 V78" fill="#fff5dd" /></g></g></g></svg>