<svg xmlns="http://www.w3.org/2000/svg" width="72" height="100" viewBox="0 0 72 100"><g stroke="#604c3b" stroke-width="2.3" stroke-linejoin="round" stroke-linecap="round"><g transform="translate(0 4)"><ellipse cx="36" cy="89" rx="20" ry="6" fill="#5a514633" stroke="none"/><g ><path d="M29 72 l0 13 h10 l0 -13 M43 72 l0 13 h-10 l0 -13" fill="#74635c" /><ellipse cx="29" cy="85" rx="7" ry="3.4" fill="#654d40" /><ellipse cx="43" cy="85" rx="7" ry="3.4" fill="#654d40" /><path d="M20 22 Q8 40 19 58 L26 52 L26 24 M49 22 Q61 38 52 60 L44 53 L43 22" fill="#74574c" /><rect x="22" y="48" width="28" height="26" rx="10" fill="#d78365" /><path d="M25 57 L19 75 Q35 83 53 75 L47 57" fill="#d78365" /><path d="M24 54 Q13 60 18 70" fill="#d78365" stroke-width="7"/><path d="M48 54 Q60 58 54 70" fill="#d78365" stroke-width="7"/><ellipse cx="18" cy="70" rx="4" ry="4" fill="#f0b894" /><ellipse cx="54" cy="70" rx="4" ry="4" fill="#f0b894" /><ellipse cx="36" cy="27" rx="21" ry="22" fill="#f0b894" /><ellipse cx="15" cy="30" rx="3.5" ry="5" fill="#f0b894" /><ellipse cx="56" cy="30" rx="3.5" ry="5" fill="#f0b894" /><path d="M15 29 Q9 0 36 4 Q61 1 58 32 L51 26 L48 16 Q34 27 20 19 L22 37 L15 35 Z" fill="#74574c" /><path d="M26 30 q4 -5 7 0 M40 30 q4 -5 7 0" fill="none" /><ellipse cx="24" cy="37" rx="4" ry="2" fill="#df9985" stroke="none"/><ellipse cx="50" cy="37" rx="4" ry="2" fill="#df9985" stroke="none"/><path d="M33 39 q3 3 6 0" fill="none" /><ellipse cx="51" cy="15" rx="6" ry="6" fill="#f2cea7" /><ellipse cx="52" cy="15" rx="2" ry="2" fill="#789b64" /></g></g></g></svg>