<svg xmlns="http://www.w3.org/2000/svg" width="72" height="100" viewBox="0 0 72 100"><g stroke="#604c3b" stroke-width="2.3" stroke-linejoin="round" stroke-linecap="round"><g transform="translate(0 4)"><ellipse cx="36" cy="89" rx="20" ry="6" fill="#5a514633" stroke="none"/><g ><path d="M29 72 l0 13 h10 l0 -13 M43 72 l0 13 h-10 l0 -13" fill="#555e59" /><ellipse cx="29" cy="85" rx="7" ry="3.4" fill="#654d40" /><ellipse cx="43" cy="85" rx="7" ry="3.4" fill="#654d40" /><rect x="22" y="48" width="28" height="26" rx="10" fill="#83a071" /><path d="M29 48 v8 h-5 v21 q12 5 24 0 V56 h-5 V48 M30 67 h12 v6 H30 Z" fill="#e6d6ae" /><path d="M24 54 Q13 60 18 70" fill="#83a071" stroke-width="7"/><path d="M48 54 Q60 58 54 70" fill="#83a071" stroke-width="7"/><ellipse cx="18" cy="70" rx="4" ry="4" fill="#895438" /><ellipse cx="54" cy="70" rx="4" ry="4" fill="#895438" /><ellipse cx="36" cy="27" rx="21" ry="22" fill="#895438" /><ellipse cx="15" cy="30" rx="3.5" ry="5" fill="#895438" /><ellipse cx="56" cy="30" rx="3.5" ry="5" fill="#895438" /><path d="M16 26 Q12 1 36 3 Q59 0 58 25 L49 14 L44 23 L36 13 L28 23 L25 14 Z" fill="#a7784f" /><path d="M26 30 q4 -5 7 0 M40 30 q4 -5 7 0" fill="none" /><ellipse cx="24" cy="37" rx="4" ry="2" fill="#df9985" stroke="none"/><ellipse cx="50" cy="37" rx="4" ry="2" fill="#df9985" stroke="none"/><path d="M33 39 q3 3 6 0" fill="none" /><path d="M33 61 Q43 51 43 61 Q39 67 33 61 Z" fill="#789b64" /></g></g></g></svg>