<svg xmlns="http://www.w3.org/2000/svg" width="48" height="48" viewBox="0 0 48 48"><g stroke="#604c3b" stroke-width="2.3" stroke-linejoin="round" stroke-linecap="round"><ellipse cx="24" cy="24" rx="15" ry="15" fill="#c4ccb2" /><ellipse cx="24" cy="24" rx="6" ry="6" fill="#fff5dd" /><g transform="rotate(0 24 24)"><rect x="21" y="2" width="6" height="10" rx="2" fill="#c4ccb2" /></g><g transform="rotate(45 24 24)"><rect x="21" y="2" width="6" height="10" rx="2" fill="#c4ccb2" /></g><g transform="rotate(90 24 24)"><rect x="21" y="2" width="6" height="10" rx="2" fill="#c4ccb2" /></g><g transform="rotate(135 24 24)"><rect x="21" y="2" width="6" height="10" rx="2" fill="#c4ccb2" /></g><g transform="rotate(180 24 24)"><rect x="21" y="2" width="6" height="10" rx="2" fill="#c4ccb2" /></g><g transform="rotate(225 24 24)"><rect x="21" y="2" width="6" height="10" rx="2" fill="#c4ccb2" /></g><g transform="rotate(270 24 24)"><rect x="21" y="2" width="6" height="10" rx="2" fill="#c4ccb2" /></g><g transform="rotate(315 24 24)"><rect x="21" y="2" width="6" height="10" rx="2" fill="#c4ccb2" /></g></g></svg>